<?xml version="1.0" encoding="UTF-8"?>
<svg width="1200" height="630" viewBox="0 0 1200 630" xmlns="http://www.w3.org/2000/svg">
  <!-- Background -->
  <rect width="1200" height="630" fill="linear-gradient(135deg, #1a1a2e 0%, #16213e 50%, #0f3460 100%)"/>
  
  <!-- Main Yin-Yang Symbol -->
  <g transform="translate(600, 315)">
    <!-- Outer circle -->
    <circle r="150" fill="none" stroke="rgba(255, 255, 255, 0.3)" stroke-width="2"/>
    
    <!-- Yang (white) half -->
    <path d="M 0,-150 A 150,150 0 0,1 0,150 A 75,75 0 0,1 0,0 A 75,75 0 0,0 0,-150 Z" fill="#ffffff"/>
    
    <!-- Yin (black) half -->
    <path d="M 0,150 A 150,150 0 0,1 0,-150 A 75,75 0 0,1 0,0 A 75,75 0 0,0 0,150 Z" fill="#000000"/>
    
    <!-- Yang dot -->
    <circle cx="0" cy="-75" r="25" fill="#000000"/>
    
    <!-- Yin dot -->
    <circle cx="0" cy="75" r="25" fill="#ffffff"/>
  </g>
  
  <!-- Title Text -->
  <text x="600" y="100" text-anchor="middle" fill="rgba(255, 255, 255, 0.9)" font-family="Arial, sans-serif" font-size="48" font-weight="300">
    The Yin-Yang Model of Reality
  </text>
  
  <!-- Subtitle -->
  <text x="600" y="140" text-anchor="middle" fill="rgba(255, 140, 66, 0.8)" font-family="Arial, sans-serif" font-size="24">
    An Interactive Journey Through Balance and Duality
  </text>
  
  <!-- Bottom text -->
  <text x="600" y="580" text-anchor="middle" fill="rgba(255, 255, 255, 0.6)" font-family="Arial, sans-serif" font-size="18">
    Explore the fundamental principles of complementary opposites
  </text>
</svg>
